<svg id="Capa_1" enable-background="new 0 0 512.001 512.001" height="512" viewBox="0 0 512.001 512.001" width="512" xmlns="http://www.w3.org/2000/svg"><g id="XMLID_1_"><g><path d="m436 190.001v132c0 99.41-80.59 180-180 180s-180-80.59-180-180v-132l38-25 42 25v132c0 55.14 44.86 100 100 100s100-44.86 100-100v-132l39-22z" fill="#fcc"/><path d="m296 110.001-60 80 20-60-60-40 60-80-20 60z" fill="#ff99ad"/><g fill="#fff"><path d="m356 130.001h80v60h-80z"/><path d="m76 130.001h80v60h-80z"/></g></g><g fill="#ff6684"><path d="m190.454 98.321 53.645 35.763-17.584 52.754c-1.551 4.653.501 9.744 4.846 12.02 4.336 2.271 9.693 1.073 12.641-2.858l60-80c1.649-2.199 2.32-4.979 1.856-7.688s-2.022-5.108-4.31-6.632l-53.645-35.763 17.584-52.754c1.551-4.653-.501-9.744-4.846-12.02-4.343-2.276-9.698-1.066-12.641 2.858l-60 80c-1.649 2.199-2.32 4.979-1.856 7.688s2.022 5.108 4.31 6.632zm36.573-33.022-.513 1.539c-1.426 4.278.188 8.981 3.94 11.483l51.204 34.136-16.684 22.245.513-1.539c1.426-4.278-.188-8.981-3.94-11.483l-51.204-34.136z"/><path d="m436 120.001h-80c-5.523 0-10 4.477-10 10v192c0 49.626-40.374 90-90 90s-90-40.374-90-90v-192c0-5.523-4.477-10-10-10h-80c-5.523 0-10 4.477-10 10v192c0 104.766 85.234 190 190 190s190-85.234 190-190v-192c0-5.523-4.477-10-10-10zm-10 20v40h-60v-40zm-280 0v40h-60v-40zm110 352c-93.738 0-170-76.262-170-170v-122h60v122c0 60.654 49.346 110 110 110s110-49.346 110-110v-122h60v122c0 93.738-76.261 170-170 170z"/></g></g></svg>